<svg t="1594972074291" class="icon" viewBox="0 0 1100 1024" version="1.1" xmlns="http://www.w3.org/2000/svg" p-id="1516" width="64" height="64"><path d="M337.831065 984.521621a212.398616 27.525431 0 1 0 424.797231 0 212.398616 27.525431 0 1 0-424.797231 0Z" fill="#EFEFEF" p-id="1517"></path><path d="M550.229681 1023.962823a1235.427123 1235.427123 0 0 1-151.687763-8.162303c-60.472537-7.80483-72.626623-17.873656-72.626624-31.278899s11.915771-23.41449 72.626624-31.278898a1248.117419 1248.117419 0 0 1 151.687763-8.162303 1248.117419 1248.117419 0 0 1 151.687763 8.162303c60.472537 7.864409 72.626623 17.873656 72.626623 31.278898s-11.915771 23.474069-72.626623 31.278899a1235.427123 1235.427123 0 0 1-151.687763 8.162303z m-190.652334-39.441202c26.870063 7.626093 94.968694 15.60966 190.652334 15.60966s163.78227-7.983566 190.652333-15.60966c-26.870063-7.626093-94.968694-15.60966-190.652333-15.60966s-163.78227 7.983566-190.652334 15.60966zM102.01796 248.126982c-1.251156-16.682079-11.141246-23.057017-19.303549-23.474069-12.273244-0.655367-21.210072 10.485878-22.044176 26.870064s6.970726 28.240377 19.303549 28.895744h0.893682a19.005655 19.005655 0 0 0 12.392402-4.825887 33.959947 33.959947 0 0 0 8.877249-22.103755c0-1.846944 0-3.574731-0.119157-5.362097z m-20.852599 7.447357a12.98819 12.98819 0 0 1-8.102724-3.395995 13.047769 13.047769 0 0 1 8.460197-2.681048 12.630717 12.630717 0 0 1 8.102724 3.395994 12.809454 12.809454 0 0 1-8.460197 2.681049zM157.009242 235.675002c-1.251156-16.6225-11.141246-22.997438-19.24397-23.41449-12.213665-0.953262-21.269651 10.4263-22.103755 26.810484s7.149463 28.240377 19.422707 28.836166h0.893683a19.661022 19.661022 0 0 0 17.873656-11.915771 37.355942 37.355942 0 0 0 3.157679-14.835135 27.763746 27.763746 0 0 0 0-5.481254z m-20.852599 7.387777a12.571138 12.571138 0 0 1-8.162303-3.395994 14.120188 14.120188 0 0 1 8.579355-2.561891 12.928611 12.928611 0 0 1 8.102724 3.395995 13.345663 13.345663 0 0 1-8.519776 2.56189zM544.271795 795.775811a52.429392 52.429392 0 0 1-39.381622 20.495126 66.907053 66.907053 0 0 1-24.427331 4.766308 57.851068 57.851068 0 0 1-27.108378-6.613253c-44.028773-22.759122-60.115064-95.743219-61.90243-104.024679a15.490502 15.490502 0 0 1 30.325637-5.957886c3.813047 18.350287 19.482285 69.17105 45.816139 82.69545a29.789427 29.789427 0 0 0 28.002061 0l3.515153-1.54905 3.813046 0.297894a21.32923 21.32923 0 0 0 16.801237-8.460197c6.374937-8.877249 13.822294-32.887528-8.877249-94.849536a15.448797 15.448797 0 1 1 29.014902-10.605036c21.448388 57.612752 22.87828 99.496687 4.408835 123.804859z" fill="#231815" p-id="1518"></path><path d="M1090.788626 511.048466a15.430923 15.430923 0 0 0-20.197232 8.460197c-12.928611 31.636372-32.053424 46.352349-50.403711 50.46329a84.2445 84.2445 0 0 0 4.945045-27.108379c0.417052-21.627124-12.392402-41.705198-30.623531-47.067295a45.518245 45.518245 0 0 0-38.547519 5.24294c-7.626093 5.362097-16.920395 16.265027-17.873656 37.41552a58.029804 58.029804 0 0 0 24.546488 49.152555 128.45201 128.45201 0 0 1-42.062671 10.426299 422.354498 422.354498 0 0 0 10.426299-93.06217 415.026299 415.026299 0 0 0-211.862405-362.001119c-23.533647-67.08579-81.861346-117.489501-106.407834-136.614313a30.563952 30.563952 0 0 0-35.747313-1.131998 99.139214 99.139214 0 0 0-45.994875 84.840289c-5.004624 0-9.949669-0.297894-14.59682-0.297895a412.523987 412.523987 0 0 0-122.851597 18.767339c-68.753998-77.452511-86.568075-77.452511-95.326167-77.45251a21.746282 21.746282 0 0 0-16.979974 8.102724c-5.064203 5.957885-18.350287 22.461228-5.064202 127.320012-2.681048 1.846944-5.362097 3.753468-7.923988 5.957885-34.555735 7.149463-82.516713-18.111972-99.31795-29.074481-38.964571-31.755529-90.083228 2.740627-114.331821 28.419114-25.97638 27.58501-41.168988 68.217788-43.19467 73.639464-14.53724 33.721632-15.252187 60.710853-1.668208 80.312295 15.907554 23.295332 46.590664 28.657429 68.753998 29.312797-8.460197 32.053424-6.553674 53.144338 5.957886 64.285583a29.789427 29.789427 0 0 0 24.367751 6.911147 417.945663 417.945663 0 0 0-3.395995 137.031365 410.438727 410.438727 0 0 0 55.765808 156.811545c-22.044176 33.185422-50.224974 84.601973-29.491533 108.433515a34.615314 34.615314 0 0 0 27.763746 11.200824c18.529024 0 44.386246-8.638934 79.656928-26.155117a413.715564 413.715564 0 0 0 251.065293 105.216257c8.758092 0.53621 17.516183 0.834104 26.274274 0.834104a410.200412 410.200412 0 0 0 284.012399-112.544456 419.852186 419.852186 0 0 0 48.497187-54.216757c38.011309 15.490502 81.1464 29.789427 111.233721 29.789427 15.550081 0 27.704167-3.813047 33.721632-13.405242 11.915771-19.24397 1.54905-48.616345-86.031866-126.90296 1.54905-4.230099 3.038522-8.460197 4.349256-12.690296 18.886497-0.834104 58.863908-5.123781 85.912708-28.121219 33.066264 4.230099 77.452511-11.43914 101.284053-70.422206a15.550081 15.550081 0 0 0-8.638934-20.078074zM159.451975 809.300211a12.809454 12.809454 0 0 1-4.051362-0.417052c-3.276837-7.149463 7.626093-32.887528 24.665646-60.532116a390.658548 390.658548 0 0 0 35.747312 42.598881c-34.31742 15.967133-49.986659 18.350287-56.361596 18.350287z m619.620085-24.665646a384.045295 384.045295 0 0 1-580.35762-63.689795s0-0.297894 0.357473-0.53621l-1.54905-1.131998A378.921513 378.921513 0 0 1 135.918328 559.247759a385.415608 385.415608 0 0 1 6.196201-141.797673 21.150493 21.150493 0 0 0-7.030305-21.150493 21.448388 21.448388 0 0 0-13.464821-4.945045 21.925018 21.925018 0 0 0-8.400619 1.787365 26.035959 26.035959 0 0 1-8.341039 2.442733c-1.131998-3.991783-1.608629-16.562921 5.957885-41.705198a23.354911 23.354911 0 0 0-3.693889-21.031335 23.116595 23.116595 0 0 0-19.184391-8.936828c-25.559328 0.893683-45.458666-4.885466-52.786865-15.669239-8.81767-12.928611-2.323575-34.85363 4.647151-51.059078l0.417052-1.012841c0-0.417052 14.001031-39.202886 36.700574-63.391901 0.53621-0.53621 46.531085-47.663083 72.686202-25.380591l1.251156 0.953261c2.859785 1.966102 67.502842 44.922456 122.136652 34.436578l3.63431 1.608629 7.328199-5.540833c4.825887-3.63431 9.89009-7.030305 14.954292-10.4263l10.187984-7.030305-1.251156-9.473038c-8.519776-63.213164-7.387778-95.326167-4.825887-107.59941 8.638934 5.123781 29.789427 21.210072 73.818201 72.030834l6.791989 7.864409 9.770932-3.336416a384.879399 384.879399 0 0 1 122.613282-20.078074c9.055986 0 18.946076 0.417052 30.206479 1.310735l19.601443 1.54905-3.0981-19.363127c-4.945045-31.457635 5.540833-56.063702 30.921425-73.401149 17.873656 13.822294 77.929141 63.808953 97.828479 127.200854l1.846945 5.957886 5.481254 2.978942a384.104874 384.104874 0 0 1 80.312296 617.415668z m186.779708-32.470476c-14.001031 2.144839-56.302017-8.638934-99.079634-25.380591a408.055573 408.055573 0 0 0 28.776586-53.620969c55.825386 50.642026 67.919894 71.971256 70.481785 79.00156z m21.567546-185.468973a29.789427 29.789427 0 0 1-18.588603-26.929642 17.873656 17.873656 0 0 1 4.766308-13.405242 10.962509 10.962509 0 0 1 6.494095-1.727787 17.099131 17.099131 0 0 1 5.123782 0.714946 17.873656 17.873656 0 0 1 8.81767 16.801237 48.735503 48.735503 0 0 1-6.434516 24.546488z" fill="#231815" p-id="1519"></path><path d="M966.030505 752.164089c-14.001031 2.144839-56.302017-8.638934-99.079635-25.380591a408.055573 408.055573 0 0 0 28.776587-53.620969c55.64665 50.642026 67.741157 71.971256 70.303048 79.00156zM215.515677 790.949924c-34.019526 15.967133-49.688764 18.350287-56.063702 18.350287a12.809454 12.809454 0 0 1-4.051362-0.417052c-3.276837-7.149463 7.626093-32.887528 24.665646-60.532116a390.658548 390.658548 0 0 0 35.449418 42.598881z" fill="#EBACAD" p-id="1520"></path><path d="M699.176816 167.218898l-5.481254-2.978943-1.846945-5.957885c-19.899337-63.391901-79.895244-113.199823-97.828478-127.200854-25.380592 17.337447-35.747313 41.705198-30.921426 73.401148l3.098101 19.363128-19.601443-1.54905c-11.260403-0.893683-21.150493-1.310735-30.20648-1.310735a384.879399 384.879399 0 0 0-122.851597 20.018495l-9.770932 3.336416-6.79199-7.864409c-44.267089-50.820763-65.060109-66.907053-73.8182-72.030835-2.561891 12.451981-3.693889 44.386246 4.825887 107.599411l1.251156 9.473038-10.187984 7.030305c-5.064203 3.395995-10.128405 6.791989-14.954293 10.426299l-7.328199 5.540834-3.63431-1.54905c-54.633809 10.485878-119.157709-32.470476-122.136651-34.436578l-1.251156-0.953262c-26.155117-22.163334-72.149993 24.844382-72.686202 25.380592-22.699543 24.129436-36.462259 62.91527-36.700574 63.630216l-0.417052 1.012841c-6.970726 16.205448-13.464821 38.130467-4.647151 51.059078 7.328199 10.783773 27.227536 16.562921 52.786865 15.669239a23.116595 23.116595 0 0 1 19.184391 8.936828 23.354911 23.354911 0 0 1 3.693889 21.031335c-7.685672 25.082698-7.209041 37.653836-5.957886 41.705198a26.035959 26.035959 0 0 0 8.34104-2.442733 21.925018 21.925018 0 0 1 8.400619-1.787365 21.448388 21.448388 0 0 1 13.464821 4.945045 21.150493 21.150493 0 0 1 6.911147 20.733441 385.415608 385.415608 0 0 0-5.957886 141.738094 378.921513 378.921513 0 0 0 61.425799 160.028803l1.54905 1.131998s-0.297894 0.297894-0.357473 0.53621a384.045295 384.045295 0 1 0 500.402797-553.666293zM93.259868 275.592834a19.005655 19.005655 0 0 1-12.392402 4.825887h-0.893682c-12.213665-0.655367-20.137653-12.511559-19.303549-28.895744s9.770932-27.525431 22.044176-26.870064c8.162303 0.417052 17.873656 6.791989 19.303549 23.474069v5.362097a33.959947 33.959947 0 0 1-8.758092 22.103755z m60.293801-19.839759a19.661022 19.661022 0 0 1-17.873657 11.915771h-0.893682c-12.273244-0.595789-20.25681-12.451981-19.422707-28.836165s9.89009-27.763746 22.103755-26.810485c8.102724 0.417052 17.873656 6.791989 19.24397 23.41449a27.763746 27.763746 0 0 1 0 5.481255 37.355942 37.355942 0 0 1-3.157679 14.835134z m219.488499 45.696982a45.101193 45.101193 0 0 1-27.346694-25.797644 55.050861 55.050861 0 0 1 22.580386-67.800736 44.862877 44.862877 0 0 1 37.475099-4.230099 48.020557 48.020557 0 0 1 31.278898 49.986659 57.910646 57.910646 0 0 1-2.681048 13.822294 54.872125 54.872125 0 0 1-23.831542 29.789427 46.114033 46.114033 0 0 1-23.474068 6.494095 43.254248 43.254248 0 0 1-14.001031-2.263996z m171.229627 494.325754a52.429392 52.429392 0 0 1-39.381622 20.495126 66.907053 66.907053 0 0 1-24.427331 4.766308 57.851068 57.851068 0 0 1-27.108378-6.613253c-44.028773-22.759122-60.115064-95.743219-61.90243-104.024679a15.490502 15.490502 0 0 1 30.325637-5.957886c3.813047 18.350287 19.482285 69.17105 45.816139 82.69545a29.789427 29.789427 0 0 0 28.002061 0l3.515153-1.54905 3.813046 0.297894a21.32923 21.32923 0 0 0 16.801237-8.460197c6.374937-8.877249 13.822294-32.887528-8.877249-94.849536a15.448797 15.448797 0 1 1 29.014902-10.605036c21.448388 57.612752 22.87828 99.496687 4.408835 123.804859z" fill="#FFFFFF" p-id="1521"></path><path d="M693.516825 164.180376a374.333942 374.333942 0 0 0-127.617906-40.632778l-2.978942-19.124812c-4.945045-31.457635 5.540833-56.123281 30.921425-73.401149 17.873656 13.762715 77.929141 63.808953 97.828479 127.200854zM383.408889 143.744829a417.826505 417.826505 0 0 0-73.818201 37.415521l-1.131998-8.758092c-8.579355-63.153586-7.447357-95.326167-4.825887-107.599411 8.638934 5.123781 29.789427 21.210072 73.8182 72.030835z" fill="#EBACAD" p-id="1522"></path><path d="M900.076713 505.15016a383.866558 383.866558 0 0 1-648.754144 278.054513 383.985716 383.985716 0 0 0 500.819849-581.072566 383.985716 383.985716 0 0 1 147.934295 303.018053z" fill="#C9CACA" p-id="1523"></path><path d="M89.625558 252.89329a12.809454 12.809454 0 0 1-8.460197 2.681049 12.98819 12.98819 0 0 1-8.102724-3.395995 13.047769 13.047769 0 0 1 8.460197-2.681048 12.630717 12.630717 0 0 1 8.102724 3.395994zM144.676419 240.500889a13.345663 13.345663 0 0 1-8.519776 2.56189 12.571138 12.571138 0 0 1-8.162303-3.395994 14.120188 14.120188 0 0 1 8.579355-2.561891 12.928611 12.928611 0 0 1 8.102724 3.395995z" fill="#EA5514" p-id="1524"></path><path d="M434.229651 267.49011a58.625593 58.625593 0 0 0 2.800206-13.881873 48.318451 48.318451 0 0 0-31.338477-50.046238 45.041614 45.041614 0 0 0-37.355942 4.230099 55.289177 55.289177 0 0 0-22.639964 67.860315 44.982035 44.982035 0 0 0 27.346694 25.797644 43.611721 43.611721 0 0 0 13.941452 2.323575 46.352349 46.352349 0 0 0 23.474068-6.553674 53.620969 53.620969 0 0 0 23.771963-29.729848z m-29.312796-9.830511a23.235753 23.235753 0 0 1-10.068826 12.869032 14.954292 14.954292 0 0 1-11.915771 1.608629 14.775556 14.775556 0 0 1-8.638934-8.519776 24.189015 24.189015 0 0 1 9.651774-29.074481 15.847975 15.847975 0 0 1 7.983567-2.323575 14.001031 14.001031 0 0 1 4.051362 0.655367 17.873656 17.873656 0 0 1 10.247563 18.588603 27.882904 27.882904 0 0 1-1.310735 6.196201zM82.714411 224.652913c-12.213665-0.655367-21.269651 10.4263-22.044176 26.870064s6.970726 28.240377 19.303549 28.895744h0.893682a18.171551 18.171551 0 0 0 12.332823-4.825887 32.708791 32.708791 0 0 0 8.87725-21.984597v-5.421676c-1.310735-16.741658-11.260403-23.116595-19.363128-23.533648z m6.970726 28.240377a13.941452 13.941452 0 0 1-8.519776 2.681049 12.690296 12.690296 0 0 1-8.102724-3.455574 12.98819 12.98819 0 0 1 16.6225 0.774525h-3.038522zM137.705693 212.260512c-12.213665-0.893683-21.269651 10.4263-22.044176 26.810484s7.149463 28.240377 19.303549 28.895745h0.893683a19.661022 19.661022 0 0 0 17.873656-11.915771 38.666676 38.666676 0 0 0 3.276837-14.894714v-5.481254c-1.251156-16.6225-11.200825-22.997438-19.303549-23.41449z m6.970726 28.240377h-3.0981 3.0981a13.226506 13.226506 0 0 1-8.519776 2.621469 12.928611 12.928611 0 0 1-8.102724-3.395994 13.286085 13.286085 0 0 1 8.460197-2.62147 12.511559 12.511559 0 0 1 8.162303 3.395995zM520.440254 662.200019a15.371344 15.371344 0 0 0-9.175144 19.839759c22.639965 61.962008 15.311766 86.031866 8.936828 94.849536a21.32923 21.32923 0 0 1-16.801237 8.460197h-3.872625l-3.455574 1.549051a30.802268 30.802268 0 0 1-28.121219 0.297894c-26.274275-13.5244-41.705198-64.345163-45.75656-82.755029a15.454755 15.454755 0 1 0-30.266058 6.25578c1.727787 8.221882 17.873656 81.205978 61.783272 103.965101a59.042645 59.042645 0 0 0 27.167957 6.672831 66.966632 66.966632 0 0 0 24.427331-4.825887 52.310234 52.310234 0 0 0 38.96457-20.733441c18.409866-24.367751 16.920395-66.251686-4.349256-124.341069a15.490502 15.490502 0 0 0-19.482285-9.234723z" fill="#231815" p-id="1525"></path><path d="M1090.729047 510.988887a15.430923 15.430923 0 0 0-20.137653 8.519776c-12.869033 31.636372-32.113002 46.29277-50.403711 50.522869a84.899867 84.899867 0 0 0 4.885466-27.167958c0.476631-21.627124-12.332823-41.705198-30.563952-47.067295a45.458666 45.458666 0 0 0-38.607097 5.302518c-7.626093 5.362097-16.920395 16.205448-17.873657 37.296363a57.970225 57.970225 0 0 0 24.546488 49.212134 131.073479 131.073479 0 0 1-42.12225 10.485878 419.852186 419.852186 0 0 0 10.485879-93.181328 414.907141 414.907141 0 0 0-211.921985-361.94154c-23.354911-67.08579-81.801767-117.489501-106.348255-136.614313a30.802268 30.802268 0 0 0-35.747313-1.072419 98.841319 98.841319 0 0 0-45.875717 84.840288c-5.123781 0-10.009248-0.297894-14.715977-0.297894a414.549668 414.549668 0 0 0-122.553704 18.469445c-68.753998-77.452511-86.627654-77.452511-95.326167-77.452511a21.805861 21.805861 0 0 0-17.039552 8.102725c-5.064203 5.957885-18.350287 22.461228-5.064203 127.320011l-7.983566 5.957886c-34.674893 7.328199-82.635871-17.873656-99.437108-28.836166-38.964571-31.815108-90.083228 2.800206-114.331821 28.419114-25.97638 27.525431-41.168988 68.158209-43.19467 73.639464-14.477662 33.721632-15.252187 60.710853-1.668208 80.371874 15.907554 23.176174 46.590664 28.59785 68.813577 29.193639-8.519776 32.113002-6.613253 53.203917 5.957886 64.345162a29.789427 29.789427 0 0 0 24.367751 6.970726 419.13724 419.13724 0 0 0-3.395995 137.031365 408.889677 408.889677 0 0 0 56.004123 156.51365c-22.34207 33.364158-50.522868 84.840289-29.729848 108.671831a34.257841 34.257841 0 0 0 27.704167 11.260403c18.529024 0 44.386246-8.638934 79.716507-26.095538a413.358091 413.358091 0 0 0 251.005714 105.156678c8.758092 0.53621 17.516183 0.834104 26.214695 0.834104a411.094095 411.094095 0 0 0 284.071978-112.544456 423.843969 423.843969 0 0 0 48.437608-54.276336c38.011309 15.490502 81.086821 29.789427 111.174142 29.789427 15.669239 0 27.763746-3.872626 33.721632-13.464821 11.915771-19.303549 1.608629-48.675924-85.912708-126.90296 1.489471-4.230099 2.978943-8.460197 4.289678-12.690296 18.886497-0.774525 58.863908-5.123781 85.853129-28.121219 33.185422 4.289678 77.452511-11.498719 101.284052-70.362627a15.490502 15.490502 0 0 0-8.579355-20.137653zM159.392396 809.300211a9.234722 9.234722 0 0 1-3.991783-0.476631c-3.336416-7.030305 7.685672-32.827949 24.606067-60.472537a419.13724 419.13724 0 0 0 35.747313 42.598881c-34.257841 15.967133-49.867501 18.350287-56.361597 18.350287z m619.620085-24.665646a384.164453 384.164453 0 0 1-580.298041-63.689795l0.417052-0.53621-1.54905-1.131998a380.11309 380.11309 0 0 1-61.485378-159.969224 388.275393 388.275393 0 0 1 6.017465-141.857252 21.210072 21.210072 0 0 0-20.554705-26.035959 21.210072 21.210072 0 0 0-8.281461 1.668208 29.789427 29.789427 0 0 1-8.341039 2.502311c-1.191577-3.991783-1.727787-16.6225 5.957885-41.705198a23.354911 23.354911 0 0 0-3.753468-20.971756 23.116595 23.116595 0 0 0-19.184391-8.996407c-25.559328 0.893683-45.399087-4.885466-52.786865-15.669239-8.81767-12.928611-2.323575-34.913209 4.70673-51.059078l0.417052-1.012841c0-0.417052 13.941452-39.202886 36.700574-63.391901 0.417052-0.53621 46.411928-47.663083 72.626623-25.44017l1.251156 1.01284c2.859785 1.906523 67.502842 44.982035 122.077073 34.376999l3.753468 1.668208 7.26862-5.540833c4.825887-3.63431 9.89009-7.030305 14.894713-10.4263l10.247563-6.970726-1.251156-9.473038c-8.579355-63.272743-7.447357-95.326167-4.825887-107.658989 8.698513 5.123781 29.789427 21.269651 73.818201 72.030834l6.791989 7.80483 9.770932-3.276837a382.615402 382.615402 0 0 1 122.553703-20.078074c9.115565 0 19.005655 0.417052 30.325637 1.310735l19.482286 1.54905-3.038522-19.363127c-4.945045-31.398056 5.540833-56.063702 30.981004-73.34157 17.873656 13.762715 77.869563 63.689795 97.709321 127.141275l1.906524 5.957886 5.481254 2.978942a384.104874 384.104874 0 0 1 80.252717 617.475246z m186.898866-32.470476c-14.120188 2.144839-56.361596-8.638934-99.139213-25.380591a408.055573 408.055573 0 0 0 28.776586-53.620969c55.825386 50.642026 67.979473 71.971256 70.541364 79.00156z m21.507967-185.468973a29.789427 29.789427 0 0 1-18.588603-26.929642 17.873656 17.873656 0 0 1 4.706729-13.405242 11.915771 11.915771 0 0 1 6.553674-1.727787 19.24397 19.24397 0 0 1 5.123782 0.714946 17.456604 17.456604 0 0 1 8.758091 16.860816 48.497187 48.497187 0 0 1-6.374937 24.486909z" fill="#231815" p-id="1526"></path><path d="M334.642247 435.500633a150.496186 161.994905 39.27 1 0 205.077645-250.823755 150.496186 161.994905 39.27 1 0-205.077645 250.823755Z" fill="#EBACAD" p-id="1527"></path><path d="M405.750959 203.621578a44.862877 44.862877 0 0 0-37.475099 4.230099 55.050861 55.050861 0 0 0-22.580386 67.800736 45.101193 45.101193 0 0 0 27.346694 25.797644 43.254248 43.254248 0 0 0 13.941452 2.263996 46.114033 46.114033 0 0 0 23.474068-6.494095 54.872125 54.872125 0 0 0 23.831542-29.789427 57.910646 57.910646 0 0 0 2.740627-13.822294 48.020557 48.020557 0 0 0-31.278898-49.986659z m-0.834104 54.0976a23.235753 23.235753 0 0 1-10.009248 12.809453 13.822294 13.822294 0 0 1-20.733441-6.911147 24.248594 24.248594 0 0 1 9.711353-29.074481 15.967133 15.967133 0 0 1 8.043146-2.263996 14.418083 14.418083 0 0 1 3.991783 0.595788 17.516183 17.516183 0 0 1 10.187984 18.588603 21.090914 21.090914 0 0 1-1.191577 6.25578z" fill="#231815" p-id="1528"></path><path d="M406.108432 251.463398a21.090914 21.090914 0 0 1-1.191577 5.957885 23.235753 23.235753 0 0 1-10.009248 12.809454 13.822294 13.822294 0 0 1-20.733441-6.911147 24.248594 24.248594 0 0 1 9.711353-29.074481 15.967133 15.967133 0 0 1 8.043146-2.263996 14.418083 14.418083 0 0 1 3.991783 0.595788 17.516183 17.516183 0 0 1 10.187984 18.886497z" fill="#F8B62D" p-id="1529"></path></svg>